<svg version="1.0" xmlns="http://www.w3.org/2000/svg"
 width="128.000000pt" height="128.000000pt" viewBox="0 0 128.000000 128.000000"
 preserveAspectRatio="xMidYMid meet">
<metadata>
Created by potrace 1.14, written by Peter Selinger 2001-2017
</metadata>
<g transform="translate(0.000000,128.000000) scale(0.100000,-0.100000)"
fill="#000000" stroke="none">
<path d="M365 1188 c-3 -7 -4 -231 -3 -498 l3 -485 105 0 105 0 3 142 c3 167
-17 149 177 157 121 4 135 7 198 36 76 37 138 97 169 168 17 37 22 67 22 142
1 113 -20 167 -94 240 -89 90 -179 110 -486 110 -146 0 -196 -3 -199 -12z
m474 -213 c16 -8 40 -28 55 -45 53 -64 25 -172 -54 -213 -28 -14 -56 -17 -145
-15 l-110 3 -3 129 c-1 72 0 136 2 143 8 19 217 18 255 -2z"/>
<path d="M623 913 c2 -22 7 -37 14 -36 6 2 27 -4 46 -12 19 -8 37 -12 39 -10
7 8 66 -60 70 -81 5 -28 31 -28 61 0 38 35 39 111 3 145 -22 21 -38 24 -130
28 l-105 4 2 -38z"/>
<path d="M277 1101 l-38 -46 0 -479 c1 -263 2 -481 5 -483 2 -2 50 -5 106 -5
l102 -1 39 36 38 36 -102 3 -102 3 -5 491 -5 491 -38 -46z"/>
<path d="M918 485 c-12 -13 -178 -32 -236 -27 l-64 5 4 -39 c4 -39 4 -39 52
-42 27 -2 54 2 59 7 6 6 24 11 39 11 15 0 28 5 28 10 0 6 9 10 21 10 18 0 109
54 109 65 0 7 -5 6 -12 0z"/>
</g>
</svg>
